<?xml version="1.0" encoding="UTF-8"?><svg id="Layer_5" xmlns="http://www.w3.org/2000/svg" viewBox="0 0 194.1 122.9"><defs><style>.cls-1{fill:#19ac8a;}.cls-2{fill:#4b4b4b;}</style></defs><rect class="cls-1" y="0" width="13" height="13"/><rect class="cls-1" x="16.5" y="0" width="13" height="13"/><rect class="cls-1" x="32.9" y="0" width="13" height="13"/><rect class="cls-1" x="49.4" y="0" width="13" height="13"/><rect class="cls-1" y="15.7" width="13" height="13"/><rect class="cls-1" x="16.5" y="15.7" width="13" height="13"/><rect class="cls-1" x="32.9" y="15.7" width="13" height="13"/><rect class="cls-1" x="49.4" y="15.7" width="13" height="13"/><rect class="cls-1" y="31.4" width="13" height="13"/><rect class="cls-1" x="16.5" y="31.4" width="13" height="13"/><rect class="cls-1" x="32.9" y="31.4" width="13" height="13"/><rect class="cls-1" x="49.4" y="31.4" width="13" height="13"/><rect class="cls-1" y="47.1" width="13" height="13"/><rect class="cls-1" x="16.5" y="47.1" width="13" height="13"/><rect class="cls-1" x="32.9" y="47.1" width="13" height="13"/><rect class="cls-1" x="49.4" y="47.1" width="13" height="13"/><rect class="cls-2" x="65.9" y="0" width="13" height="13"/><rect class="cls-2" x="82.3" width="13" height="13"/><rect class="cls-2" x="98.8" y="0" width="13" height="13"/><rect class="cls-2" x="115.3" y="0" width="13" height="13"/><rect class="cls-2" x="65.9" y="15.7" width="13" height="13"/><rect class="cls-2" x="82.3" y="15.7" width="13" height="13"/><rect class="cls-2" x="98.8" y="15.7" width="13" height="13"/><rect class="cls-2" x="115.3" y="15.7" width="13" height="13"/><rect class="cls-2" x="65.9" y="31.4" width="13" height="13"/><rect class="cls-2" x="82.3" y="31.4" width="13" height="13"/><rect class="cls-2" x="98.8" y="31.4" width="13" height="13"/><rect class="cls-2" x="115.3" y="31.4" width="13" height="13"/><rect class="cls-2" x="65.9" y="47.1" width="13" height="13"/><rect class="cls-2" x="82.3" y="47.1" width="13" height="13"/><rect class="cls-2" x="98.8" y="47.1" width="13" height="13"/><rect class="cls-2" x="115.3" y="47.1" width="13" height="13"/><rect class="cls-2" x="131.7" y="0" width="13" height="13"/><rect class="cls-2" x="148.2" y="0" width="13" height="13"/><rect class="cls-2" x="164.7" y="0" width="13" height="13"/><rect class="cls-2" x="181.1" y="0" width="13" height="13"/><rect class="cls-2" x="131.7" y="15.7" width="13" height="13"/><rect class="cls-2" x="148.2" y="15.7" width="13" height="13"/><rect class="cls-2" x="164.7" y="15.7" width="13" height="13"/><rect class="cls-2" x="181.1" y="15.7" width="13" height="13"/><rect class="cls-2" x="131.7" y="31.4" width="13" height="13"/><rect class="cls-2" x="148.2" y="31.4" width="13" height="13"/><rect class="cls-2" x="164.7" y="31.4" width="13" height="13"/><rect class="cls-2" x="181.1" y="31.4" width="13" height="13"/><rect class="cls-2" x="131.7" y="47.1" width="13" height="13"/><rect class="cls-2" x="148.2" y="47.1" width="13" height="13"/><rect class="cls-2" x="164.7" y="47.1" width="13" height="13"/><rect class="cls-2" x="181.1" y="47.1" width="13" height="13"/><rect class="cls-2" y="62.8" width="13" height="13"/><rect class="cls-2" x="16.5" y="62.8" width="13" height="13"/><rect class="cls-2" x="32.9" y="62.8" width="13" height="13"/><rect class="cls-2" x="49.4" y="62.8" width="13" height="13"/><rect class="cls-2" y="78.5" width="13" height="13"/><rect class="cls-2" x="16.5" y="78.5" width="13" height="13"/><rect class="cls-2" x="32.9" y="78.5" width="13" height="13"/><rect class="cls-2" x="49.4" y="78.5" width="13" height="13"/><rect class="cls-2" y="94.2" width="13" height="13"/><rect class="cls-2" x="16.5" y="94.2" width="13" height="13"/><rect class="cls-2" x="32.9" y="94.2" width="13" height="13"/><rect class="cls-2" x="49.4" y="94.2" width="13" height="13"/><rect class="cls-2" y="109.9" width="13" height="13"/><rect class="cls-2" x="16.5" y="109.9" width="13" height="13"/><rect class="cls-2" x="32.9" y="109.9" width="13" height="13"/><rect class="cls-2" x="49.4" y="109.9" width="13" height="13"/><rect class="cls-2" x="65.9" y="62.8" width="13" height="13"/><rect class="cls-2" x="82.3" y="62.8" width="13" height="13"/><rect class="cls-2" x="98.8" y="62.8" width="13" height="13"/><rect class="cls-2" x="115.3" y="62.8" width="13" height="13"/><rect class="cls-2" x="65.9" y="78.5" width="13" height="13"/><rect class="cls-2" x="82.3" y="78.5" width="13" height="13"/><rect class="cls-2" x="98.8" y="78.5" width="13" height="13"/><rect class="cls-2" x="115.3" y="78.5" width="13" height="13"/><rect class="cls-2" x="65.9" y="94.2" width="13" height="13"/><rect class="cls-2" x="82.3" y="94.2" width="13" height="13"/><rect class="cls-2" x="98.8" y="94.2" width="13" height="13"/><rect class="cls-2" x="115.3" y="94.2" width="13" height="13"/><rect class="cls-2" x="65.9" y="109.9" width="13" height="13"/><rect class="cls-2" x="82.3" y="109.9" width="13" height="13"/><rect class="cls-2" x="98.8" y="109.9" width="13" height="13"/><rect class="cls-2" x="115.3" y="109.9" width="13" height="13"/><rect class="cls-2" x="131.7" y="62.8" width="13" height="13"/><rect class="cls-2" x="148.2" y="62.8" width="13" height="13"/><rect class="cls-2" x="164.7" y="62.8" width="13" height="13"/><rect class="cls-2" x="181.1" y="62.8" width="13" height="13"/><rect class="cls-2" x="131.7" y="78.5" width="13" height="13"/><rect class="cls-2" x="148.2" y="78.5" width="13" height="13"/><rect class="cls-2" x="164.7" y="78.5" width="13" height="13"/><rect class="cls-2" x="181.1" y="78.5" width="13" height="13"/><rect class="cls-2" x="131.7" y="94.2" width="13" height="13"/><rect class="cls-2" x="148.2" y="94.2" width="13" height="13"/><rect class="cls-2" x="164.7" y="94.2" width="13" height="13"/><rect class="cls-2" x="181.1" y="94.2" width="13" height="13"/><rect class="cls-2" x="131.7" y="109.9" width="13" height="13"/><rect class="cls-2" x="148.2" y="109.9" width="13" height="13"/><rect class="cls-2" x="164.7" y="109.9" width="13" height="13"/><rect class="cls-2" x="181.1" y="109.9" width="13" height="13"/></svg>