<?xml version="1.0" encoding="UTF-8"?><svg id="Layer_5" xmlns="http://www.w3.org/2000/svg" viewBox="0 0 196.6 124.5"><defs><style>.cls-1{fill:#19ac8a;}.cls-2{fill:#4b4b4b;}</style></defs><circle class="cls-2" cx="182.5" cy="110.4" r="14.1"/><circle class="cls-2" cx="182.5" cy="78.3" r="14.1"/><circle class="cls-2" cx="182.5" cy="46.2" r="14.1"/><circle class="cls-2" cx="182.5" cy="14.1" r="14.1"/><circle class="cls-2" cx="148.9" cy="110.4" r="14.1"/><circle class="cls-2" cx="148.9" cy="78.3" r="14.1"/><circle class="cls-2" cx="148.9" cy="46.2" r="14.1"/><circle class="cls-2" cx="148.9" cy="14.1" r="14.1"/><circle class="cls-2" cx="115.2" cy="110.4" r="14.1"/><circle class="cls-2" cx="115.2" cy="78.3" r="14.1"/><circle class="cls-2" cx="115.2" cy="46.2" r="14.1"/><circle class="cls-2" cx="115.2" cy="14.1" r="14.1"/><circle class="cls-2" cx="81.5" cy="110.4" r="14.1"/><circle class="cls-2" cx="81.5" cy="78.3" r="14.1"/><circle class="cls-2" cx="81.5" cy="46.2" r="14.1"/><circle class="cls-2" cx="81.5" cy="14.1" r="14.1"/><circle class="cls-1" cx="47.8" cy="110.4" r="14.1"/><circle class="cls-1" cx="47.8" cy="78.3" r="14.1"/><circle class="cls-2" cx="47.8" cy="46.2" r="14.1"/><circle class="cls-2" cx="47.8" cy="14.1" r="14.1"/><circle class="cls-1" cx="14.1" cy="110.4" r="14.1"/><circle class="cls-1" cx="14.1" cy="78.3" r="14.1"/><circle class="cls-2" cx="14.1" cy="46.2" r="14.1"/><circle class="cls-2" cx="14.1" cy="14.1" r="14.1"/></svg>