<?xml version="1.0" encoding="UTF-8"?><svg id="Layer_5" xmlns="http://www.w3.org/2000/svg" viewBox="0 0 200 126.9"><defs><style>.cls-1{fill:#19ac8a;}.cls-2{fill:#4b4b4b;}</style></defs><rect class="cls-2" width="6.6" height="6.6"/><rect class="cls-2" x="8.4" width="6.6" height="6.6"/><rect class="cls-2" x="16.8" width="6.6" height="6.6"/><rect class="cls-2" x="25.2" width="6.6" height="6.6"/><rect class="cls-2" x="33.6" width="6.6" height="6.6"/><rect class="cls-2" x="42" width="6.6" height="6.6"/><rect class="cls-2" x="50.4" width="6.6" height="6.6"/><rect class="cls-2" x="58.8" width="6.6" height="6.6"/><rect class="cls-2" y="8" width="6.6" height="6.6"/><rect class="cls-2" x="8.4" y="8" width="6.6" height="6.6"/><rect class="cls-2" x="16.8" y="8" width="6.6" height="6.6"/><rect class="cls-2" x="25.2" y="8" width="6.6" height="6.6"/><rect class="cls-2" x="33.6" y="8" width="6.6" height="6.6"/><rect class="cls-2" x="42" y="8" width="6.6" height="6.6"/><rect class="cls-2" x="50.4" y="8" width="6.6" height="6.6"/><rect class="cls-2" x="58.8" y="8" width="6.6" height="6.6"/><rect class="cls-2" y="16" width="6.6" height="6.6"/><rect class="cls-2" x="8.4" y="16" width="6.6" height="6.6"/><rect class="cls-2" x="16.8" y="16" width="6.6" height="6.6"/><rect class="cls-2" x="25.2" y="16" width="6.6" height="6.6"/><rect class="cls-2" x="33.6" y="16" width="6.6" height="6.6"/><rect class="cls-2" x="42" y="16" width="6.6" height="6.6"/><rect class="cls-2" x="50.4" y="16" width="6.6" height="6.6"/><rect class="cls-2" x="58.8" y="16" width="6.6" height="6.6"/><rect class="cls-2" y="24" width="6.6" height="6.6"/><rect class="cls-2" x="8.4" y="24" width="6.6" height="6.6"/><rect class="cls-2" x="16.8" y="24" width="6.6" height="6.6"/><rect class="cls-2" x="25.2" y="24" width="6.6" height="6.6"/><rect class="cls-2" x="33.6" y="24" width="6.6" height="6.6"/><rect class="cls-2" x="42" y="24" width="6.6" height="6.6"/><rect class="cls-2" x="50.4" y="24" width="6.6" height="6.6"/><rect class="cls-2" x="58.8" y="24" width="6.6" height="6.6"/><rect class="cls-2" y="32" width="6.6" height="6.6"/><rect class="cls-2" x="8.4" y="32" width="6.6" height="6.6"/><rect class="cls-2" x="16.8" y="32" width="6.6" height="6.6"/><rect class="cls-2" x="25.2" y="32" width="6.6" height="6.6"/><rect class="cls-2" x="33.6" y="32" width="6.6" height="6.6"/><rect class="cls-2" x="42" y="32" width="6.6" height="6.6"/><rect class="cls-2" x="50.4" y="32" width="6.6" height="6.6"/><rect class="cls-2" x="58.8" y="32" width="6.6" height="6.6"/><rect class="cls-2" y="40.1" width="6.6" height="6.6"/><rect class="cls-2" x="8.4" y="40.1" width="6.6" height="6.6"/><rect class="cls-2" x="16.8" y="40.1" width="6.6" height="6.6"/><rect class="cls-2" x="25.2" y="40.1" width="6.6" height="6.6"/><rect class="cls-2" x="33.6" y="40.1" width="6.6" height="6.6"/><rect class="cls-2" x="42" y="40.1" width="6.6" height="6.6"/><rect class="cls-2" x="50.4" y="40.1" width="6.6" height="6.6"/><rect class="cls-2" x="58.8" y="40.1" width="6.6" height="6.6"/><rect class="cls-2" y="48.1" width="6.6" height="6.6"/><rect class="cls-2" x="8.4" y="48.1" width="6.6" height="6.6"/><rect class="cls-2" x="16.8" y="48.1" width="6.6" height="6.6"/><rect class="cls-2" x="25.2" y="48.1" width="6.6" height="6.6"/><rect class="cls-2" x="33.6" y="48.1" width="6.6" height="6.6"/><rect class="cls-2" x="42" y="48.1" width="6.6" height="6.6"/><rect class="cls-2" x="50.4" y="48.1" width="6.6" height="6.6"/><rect class="cls-2" x="58.8" y="48.1" width="6.6" height="6.6"/><rect class="cls-2" y="56.1" width="6.6" height="6.6"/><rect class="cls-2" x="8.4" y="56.1" width="6.6" height="6.6"/><rect class="cls-2" x="16.8" y="56.1" width="6.6" height="6.6"/><rect class="cls-2" x="25.2" y="56.1" width="6.6" height="6.6"/><rect class="cls-2" x="33.6" y="56.1" width="6.6" height="6.6"/><rect class="cls-2" x="42" y="56.1" width="6.6" height="6.6"/><rect class="cls-2" x="50.4" y="56.1" width="6.6" height="6.6"/><rect class="cls-2" x="58.8" y="56.1" width="6.6" height="6.6"/><rect class="cls-2" x="67.2" width="6.6" height="6.6"/><rect class="cls-2" x="75.6" width="6.6" height="6.6"/><rect class="cls-2" x="84" width="6.6" height="6.6"/><rect class="cls-2" x="92.5" width="6.6" height="6.6"/><rect class="cls-2" x="67.2" y="8" width="6.6" height="6.6"/><rect class="cls-2" x="75.6" y="8" width="6.6" height="6.6"/><rect class="cls-2" x="84" y="8" width="6.6" height="6.6"/><rect class="cls-2" x="92.5" y="8" width="6.6" height="6.6"/><rect class="cls-2" x="67.2" y="16" width="6.6" height="6.6"/><rect class="cls-2" x="75.6" y="16" width="6.6" height="6.6"/><rect class="cls-2" x="84" y="16" width="6.6" height="6.6"/><rect class="cls-2" x="92.5" y="16" width="6.6" height="6.6"/><rect class="cls-2" x="67.2" y="24" width="6.6" height="6.6"/><rect class="cls-2" x="75.6" y="24" width="6.6" height="6.6"/><rect class="cls-2" x="84" y="24" width="6.6" height="6.6"/><rect class="cls-2" x="92.5" y="24" width="6.6" height="6.6"/><rect class="cls-2" x="67.2" y="32" width="6.6" height="6.6"/><rect class="cls-2" x="75.6" y="32" width="6.6" height="6.6"/><rect class="cls-2" x="84" y="32" width="6.6" height="6.6"/><rect class="cls-2" x="92.5" y="32" width="6.6" height="6.6"/><rect class="cls-2" x="67.2" y="40.1" width="6.6" height="6.6"/><rect class="cls-2" x="75.6" y="40.1" width="6.6" height="6.6"/><rect class="cls-2" x="84" y="40.1" width="6.6" height="6.6"/><rect class="cls-2" x="92.5" y="40.1" width="6.6" height="6.6"/><rect class="cls-2" x="67.2" y="48.1" width="6.6" height="6.6"/><rect class="cls-2" x="75.6" y="48.1" width="6.6" height="6.6"/><rect class="cls-2" x="84" y="48.1" width="6.6" height="6.6"/><rect class="cls-2" x="92.5" y="48.1" width="6.6" height="6.6"/><rect class="cls-2" x="67.2" y="56.1" width="6.6" height="6.6"/><rect class="cls-2" x="75.6" y="56.1" width="6.6" height="6.6"/><rect class="cls-2" x="84" y="56.1" width="6.6" height="6.6"/><rect class="cls-2" x="92.5" y="56.1" width="6.6" height="6.6"/><rect class="cls-2" x="100.9" width="6.6" height="6.6"/><rect class="cls-2" x="109.3" width="6.6" height="6.6"/><rect class="cls-2" x="117.7" width="6.6" height="6.6"/><rect class="cls-2" x="126.1" width="6.6" height="6.6"/><rect class="cls-2" x="100.9" y="8" width="6.6" height="6.6"/><rect class="cls-2" x="109.3" y="8" width="6.6" height="6.6"/><rect class="cls-2" x="117.7" y="8" width="6.6" height="6.6"/><rect class="cls-2" x="126.1" y="8" width="6.6" height="6.6"/><rect class="cls-2" x="100.9" y="16" width="6.6" height="6.6"/><rect class="cls-2" x="109.3" y="16" width="6.6" height="6.6"/><rect class="cls-2" x="117.7" y="16" width="6.6" height="6.6"/><rect class="cls-2" x="126.1" y="16" width="6.6" height="6.6"/><rect class="cls-2" x="100.9" y="24" width="6.6" height="6.6"/><rect class="cls-2" x="109.3" y="24" width="6.6" height="6.6"/><rect class="cls-2" x="117.7" y="24" width="6.6" height="6.6"/><rect class="cls-2" x="126.1" y="24" width="6.6" height="6.6"/><rect class="cls-2" x="100.9" y="32" width="6.6" height="6.6"/><rect class="cls-2" x="109.3" y="32" width="6.6" height="6.6"/><rect class="cls-2" x="117.7" y="32" width="6.6" height="6.6"/><rect class="cls-2" x="126.1" y="32" width="6.6" height="6.6"/><rect class="cls-2" x="100.9" y="40.1" width="6.6" height="6.6"/><rect class="cls-2" x="109.3" y="40.1" width="6.6" height="6.6"/><rect class="cls-2" x="117.7" y="40.1" width="6.6" height="6.6"/><rect class="cls-2" x="126.1" y="40.1" width="6.6" height="6.6"/><rect class="cls-2" x="100.9" y="48.1" width="6.6" height="6.6"/><rect class="cls-2" x="109.3" y="48.1" width="6.6" height="6.6"/><rect class="cls-2" x="117.7" y="48.1" width="6.6" height="6.6"/><rect class="cls-2" x="126.1" y="48.1" width="6.6" height="6.6"/><rect class="cls-2" x="100.9" y="56.1" width="6.6" height="6.6"/><rect class="cls-2" x="109.3" y="56.1" width="6.6" height="6.6"/><rect class="cls-2" x="117.7" y="56.1" width="6.6" height="6.6"/><rect class="cls-2" x="126.1" y="56.1" width="6.6" height="6.6"/><rect class="cls-2" x="134.5" width="6.6" height="6.6"/><rect class="cls-2" x="142.9" width="6.6" height="6.6"/><rect class="cls-2" x="151.3" width="6.6" height="6.6"/><rect class="cls-2" x="159.7" width="6.6" height="6.6"/><rect class="cls-2" x="168.2" width="6.6" height="6.6"/><rect class="cls-2" x="176.6" width="6.6" height="6.6"/><rect class="cls-2" x="185" width="6.6" height="6.6"/><rect class="cls-2" x="193.4" width="6.6" height="6.6"/><rect class="cls-2" x="134.5" y="8" width="6.6" height="6.6"/><rect class="cls-2" x="142.9" y="8" width="6.6" height="6.6"/><rect class="cls-2" x="151.3" y="8" width="6.6" height="6.6"/><rect class="cls-2" x="159.7" y="8" width="6.6" height="6.6"/><rect class="cls-2" x="168.2" y="8" width="6.6" height="6.6"/><rect class="cls-2" x="176.6" y="8" width="6.6" height="6.6"/><rect class="cls-2" x="185" y="8" width="6.6" height="6.6"/><rect class="cls-2" x="193.4" y="8" width="6.6" height="6.6"/><rect class="cls-2" x="134.5" y="16" width="6.6" height="6.6"/><rect class="cls-2" x="142.9" y="16" width="6.6" height="6.6"/><rect class="cls-2" x="151.3" y="16" width="6.6" height="6.6"/><rect class="cls-2" x="159.7" y="16" width="6.6" height="6.6"/><rect class="cls-2" x="168.2" y="16" width="6.6" height="6.6"/><rect class="cls-2" x="176.6" y="16" width="6.6" height="6.6"/><rect class="cls-2" x="185" y="16" width="6.6" height="6.6"/><rect class="cls-2" x="193.4" y="16" width="6.6" height="6.6"/><rect class="cls-2" x="134.5" y="24" width="6.6" height="6.6"/><rect class="cls-2" x="142.9" y="24" width="6.6" height="6.6"/><rect class="cls-2" x="151.3" y="24" width="6.6" height="6.6"/><rect class="cls-2" x="159.7" y="24" width="6.6" height="6.6"/><rect class="cls-2" x="168.2" y="24" width="6.6" height="6.6"/><rect class="cls-2" x="176.6" y="24" width="6.6" height="6.6"/><rect class="cls-2" x="185" y="24" width="6.6" height="6.6"/><rect class="cls-2" x="193.4" y="24" width="6.6" height="6.6"/><rect class="cls-2" x="134.5" y="32" width="6.6" height="6.6"/><rect class="cls-2" x="142.9" y="32" width="6.6" height="6.6"/><rect class="cls-2" x="151.3" y="32" width="6.6" height="6.6"/><rect class="cls-2" x="159.7" y="32" width="6.6" height="6.6"/><rect class="cls-2" x="168.2" y="32" width="6.6" height="6.6"/><rect class="cls-2" x="176.6" y="32" width="6.6" height="6.6"/><rect class="cls-2" x="185" y="32" width="6.6" height="6.6"/><rect class="cls-2" x="193.4" y="32" width="6.6" height="6.6"/><rect class="cls-2" x="134.5" y="40.1" width="6.6" height="6.6"/><rect class="cls-2" x="142.9" y="40.1" width="6.6" height="6.6"/><rect class="cls-2" x="151.3" y="40.1" width="6.6" height="6.6"/><rect class="cls-2" x="159.7" y="40.1" width="6.6" height="6.6"/><rect class="cls-2" x="168.2" y="40.1" width="6.6" height="6.6"/><rect class="cls-2" x="176.6" y="40.1" width="6.6" height="6.6"/><rect class="cls-2" x="185" y="40.1" width="6.6" height="6.6"/><rect class="cls-2" x="193.4" y="40.1" width="6.6" height="6.6"/><rect class="cls-2" x="134.5" y="48.1" width="6.6" height="6.6"/><rect class="cls-2" x="142.9" y="48.1" width="6.6" height="6.6"/><rect class="cls-2" x="151.3" y="48.1" width="6.6" height="6.6"/><rect class="cls-2" x="159.7" y="48.1" width="6.6" height="6.6"/><rect class="cls-2" x="168.2" y="48.1" width="6.6" height="6.6"/><rect class="cls-2" x="176.6" y="48.1" width="6.6" height="6.6"/><rect class="cls-2" x="185" y="48.1" width="6.6" height="6.6"/><rect class="cls-2" x="193.4" y="48.1" width="6.6" height="6.6"/><rect class="cls-2" x="134.5" y="56.1" width="6.6" height="6.6"/><rect class="cls-2" x="142.9" y="56.1" width="6.6" height="6.6"/><rect class="cls-2" x="151.3" y="56.1" width="6.6" height="6.6"/><rect class="cls-2" x="159.7" y="56.1" width="6.6" height="6.6"/><rect class="cls-2" x="168.2" y="56.1" width="6.6" height="6.6"/><rect class="cls-2" x="176.6" y="56.1" width="6.6" height="6.6"/><rect class="cls-2" x="185" y="56.1" width="6.6" height="6.6"/><rect class="cls-2" x="193.4" y="56.1" width="6.6" height="6.6"/><rect class="cls-2" y="64.2" width="6.6" height="6.6"/><rect class="cls-2" x="8.4" y="64.2" width="6.6" height="6.6"/><rect class="cls-2" x="16.8" y="64.2" width="6.6" height="6.6"/><rect class="cls-2" x="25.2" y="64.2" width="6.6" height="6.6"/><rect class="cls-2" x="33.6" y="64.2" width="6.6" height="6.6"/><rect class="cls-2" x="42" y="64.2" width="6.6" height="6.6"/><rect class="cls-2" x="50.4" y="64.2" width="6.6" height="6.6"/><rect class="cls-2" x="58.8" y="64.2" width="6.6" height="6.6"/><rect class="cls-2" y="72.2" width="6.6" height="6.6"/><rect class="cls-2" x="8.4" y="72.2" width="6.6" height="6.6"/><rect class="cls-2" x="16.8" y="72.2" width="6.6" height="6.6"/><rect class="cls-2" x="25.2" y="72.2" width="6.6" height="6.6"/><rect class="cls-2" x="33.6" y="72.2" width="6.6" height="6.6"/><rect class="cls-2" x="42" y="72.2" width="6.6" height="6.6"/><rect class="cls-2" x="50.4" y="72.2" width="6.6" height="6.6"/><rect class="cls-2" x="58.8" y="72.2" width="6.6" height="6.6"/><rect class="cls-2" y="80.2" width="6.6" height="6.6"/><rect class="cls-2" x="8.4" y="80.2" width="6.6" height="6.6"/><rect class="cls-2" x="16.8" y="80.2" width="6.6" height="6.6"/><rect class="cls-2" x="25.2" y="80.2" width="6.6" height="6.6"/><rect class="cls-2" x="33.6" y="80.2" width="6.6" height="6.6"/><rect class="cls-2" x="42" y="80.2" width="6.6" height="6.6"/><rect class="cls-2" x="50.4" y="80.2" width="6.6" height="6.6"/><rect class="cls-2" x="58.8" y="80.2" width="6.6" height="6.6"/><rect class="cls-2" y="88.2" width="6.6" height="6.6"/><rect class="cls-2" x="8.4" y="88.2" width="6.6" height="6.6"/><rect class="cls-2" x="16.8" y="88.2" width="6.6" height="6.6"/><rect class="cls-2" x="25.2" y="88.2" width="6.6" height="6.6"/><rect class="cls-2" x="33.6" y="88.2" width="6.6" height="6.6"/><rect class="cls-2" x="42" y="88.2" width="6.6" height="6.6"/><rect class="cls-2" x="50.4" y="88.2" width="6.6" height="6.6"/><rect class="cls-2" x="58.8" y="88.2" width="6.6" height="6.6"/><rect class="cls-2" y="96.3" width="6.6" height="6.6"/><rect class="cls-2" x="8.4" y="96.3" width="6.6" height="6.6"/><rect class="cls-2" x="16.8" y="96.3" width="6.6" height="6.6"/><rect class="cls-2" x="25.2" y="96.3" width="6.6" height="6.6"/><rect class="cls-2" x="33.6" y="96.3" width="6.6" height="6.6"/><rect class="cls-2" x="42" y="96.3" width="6.6" height="6.6"/><rect class="cls-2" x="50.4" y="96.3" width="6.6" height="6.6"/><rect class="cls-2" x="58.8" y="96.3" width="6.6" height="6.6"/><rect class="cls-2" y="104.3" width="6.6" height="6.6"/><rect class="cls-2" x="8.4" y="104.3" width="6.6" height="6.6"/><rect class="cls-2" x="16.8" y="104.3" width="6.6" height="6.6"/><rect class="cls-2" x="25.2" y="104.3" width="6.6" height="6.6"/><rect class="cls-2" x="33.6" y="104.3" width="6.6" height="6.6"/><rect class="cls-2" x="42" y="104.3" width="6.6" height="6.6"/><rect class="cls-2" x="50.4" y="104.3" width="6.6" height="6.6"/><rect class="cls-2" x="58.8" y="104.3" width="6.6" height="6.6"/><rect class="cls-2" y="112.3" width="6.6" height="6.6"/><rect class="cls-2" x="8.4" y="112.3" width="6.6" height="6.6"/><rect class="cls-2" x="16.8" y="112.3" width="6.6" height="6.6"/><rect class="cls-2" x="25.2" y="112.3" width="6.6" height="6.6"/><rect class="cls-2" x="33.6" y="112.3" width="6.6" height="6.6"/><rect class="cls-2" x="42" y="112.3" width="6.6" height="6.6"/><rect class="cls-2" x="50.4" y="112.3" width="6.6" height="6.6"/><rect class="cls-2" x="58.8" y="112.3" width="6.6" height="6.6"/><rect class="cls-2" y="120.3" width="6.6" height="6.6"/><rect class="cls-2" x="8.4" y="120.3" width="6.6" height="6.6"/><rect class="cls-2" x="16.8" y="120.3" width="6.6" height="6.6"/><rect class="cls-2" x="25.2" y="120.3" width="6.6" height="6.6"/><rect class="cls-2" x="33.6" y="120.3" width="6.6" height="6.6"/><rect class="cls-2" x="42" y="120.3" width="6.6" height="6.6"/><rect class="cls-2" x="50.4" y="120.3" width="6.6" height="6.6"/><rect class="cls-2" x="58.8" y="120.3" width="6.6" height="6.6"/><rect class="cls-1" x="67.2" y="64.2" width="6.6" height="6.6"/><rect class="cls-1" x="75.6" y="64.2" width="6.6" height="6.6"/><rect class="cls-1" x="84" y="64.2" width="6.6" height="6.6"/><rect class="cls-1" x="92.5" y="64.2" width="6.6" height="6.6"/><rect class="cls-1" x="67.2" y="72.2" width="6.6" height="6.6"/><rect class="cls-1" x="75.6" y="72.2" width="6.6" height="6.6"/><rect class="cls-1" x="84" y="72.2" width="6.6" height="6.6"/><rect class="cls-1" x="92.5" y="72.2" width="6.6" height="6.6"/><rect class="cls-1" x="67.2" y="80.2" width="6.6" height="6.6"/><rect class="cls-1" x="75.6" y="80.2" width="6.6" height="6.6"/><rect class="cls-1" x="84" y="80.2" width="6.6" height="6.6"/><rect class="cls-1" x="92.5" y="80.2" width="6.6" height="6.6"/><rect class="cls-1" x="67.2" y="88.2" width="6.6" height="6.6"/><rect class="cls-1" x="75.6" y="88.2" width="6.6" height="6.6"/><rect class="cls-1" x="84" y="88.2" width="6.6" height="6.6"/><rect class="cls-1" x="92.5" y="88.2" width="6.6" height="6.6"/><rect class="cls-1" x="67.2" y="96.3" width="6.6" height="6.6"/><rect class="cls-1" x="75.6" y="96.3" width="6.6" height="6.6"/><rect class="cls-1" x="84" y="96.3" width="6.6" height="6.6"/><rect class="cls-1" x="92.5" y="96.3" width="6.6" height="6.6"/><rect class="cls-1" x="67.2" y="104.3" width="6.6" height="6.6"/><rect class="cls-1" x="75.6" y="104.3" width="6.6" height="6.6"/><rect class="cls-1" x="84" y="104.3" width="6.6" height="6.6"/><rect class="cls-1" x="92.5" y="104.3" width="6.6" height="6.6"/><rect class="cls-1" x="67.2" y="112.3" width="6.6" height="6.6"/><rect class="cls-1" x="75.6" y="112.3" width="6.6" height="6.6"/><rect class="cls-1" x="84" y="112.3" width="6.6" height="6.6"/><rect class="cls-1" x="92.5" y="112.3" width="6.6" height="6.6"/><rect class="cls-1" x="67.2" y="120.3" width="6.6" height="6.6"/><rect class="cls-1" x="75.6" y="120.3" width="6.6" height="6.6"/><rect class="cls-1" x="84" y="120.3" width="6.6" height="6.6"/><rect class="cls-1" x="92.5" y="120.3" width="6.6" height="6.6"/><rect class="cls-1" x="100.9" y="64.2" width="6.6" height="6.6"/><rect class="cls-1" x="109.3" y="64.2" width="6.6" height="6.6"/><rect class="cls-1" x="117.7" y="64.2" width="6.6" height="6.6"/><rect class="cls-1" x="126.1" y="64.2" width="6.6" height="6.6"/><rect class="cls-1" x="100.9" y="72.2" width="6.6" height="6.6"/><rect class="cls-1" x="109.3" y="72.2" width="6.6" height="6.6"/><rect class="cls-1" x="117.7" y="72.2" width="6.6" height="6.6"/><rect class="cls-1" x="126.1" y="72.2" width="6.6" height="6.6"/><rect class="cls-1" x="100.9" y="80.2" width="6.6" height="6.6"/><rect class="cls-1" x="109.3" y="80.2" width="6.6" height="6.6"/><rect class="cls-1" x="117.7" y="80.2" width="6.6" height="6.6"/><rect class="cls-1" x="126.1" y="80.2" width="6.6" height="6.6"/><rect class="cls-1" x="100.9" y="88.2" width="6.6" height="6.6"/><rect class="cls-1" x="109.3" y="88.2" width="6.6" height="6.6"/><rect class="cls-1" x="117.7" y="88.2" width="6.6" height="6.6"/><rect class="cls-1" x="126.1" y="88.2" width="6.6" height="6.6"/><rect class="cls-1" x="100.9" y="96.3" width="6.6" height="6.6"/><rect class="cls-1" x="109.3" y="96.3" width="6.6" height="6.6"/><rect class="cls-1" x="117.7" y="96.3" width="6.6" height="6.6"/><rect class="cls-1" x="126.1" y="96.3" width="6.6" height="6.6"/><rect class="cls-1" x="100.9" y="104.3" width="6.6" height="6.6"/><rect class="cls-1" x="109.3" y="104.3" width="6.6" height="6.6"/><rect class="cls-1" x="117.7" y="104.3" width="6.6" height="6.6"/><rect class="cls-1" x="126.1" y="104.3" width="6.6" height="6.6"/><rect class="cls-1" x="100.9" y="112.3" width="6.6" height="6.6"/><rect class="cls-1" x="109.3" y="112.3" width="6.6" height="6.6"/><rect class="cls-1" x="117.7" y="112.3" width="6.6" height="6.6"/><rect class="cls-1" x="126.1" y="112.3" width="6.6" height="6.6"/><rect class="cls-1" x="100.9" y="120.3" width="6.6" height="6.6"/><rect class="cls-1" x="109.3" y="120.3" width="6.6" height="6.6"/><rect class="cls-1" x="117.7" y="120.3" width="6.6" height="6.6"/><rect class="cls-1" x="126.1" y="120.3" width="6.6" height="6.6"/><rect class="cls-2" x="134.5" y="64.2" width="6.6" height="6.6"/><rect class="cls-2" x="142.9" y="64.2" width="6.6" height="6.6"/><rect class="cls-2" x="151.3" y="64.2" width="6.6" height="6.6"/><rect class="cls-2" x="159.7" y="64.2" width="6.6" height="6.6"/><rect class="cls-2" x="168.2" y="64.2" width="6.6" height="6.6"/><rect class="cls-2" x="176.6" y="64.2" width="6.6" height="6.6"/><rect class="cls-2" x="185" y="64.2" width="6.6" height="6.6"/><rect class="cls-2" x="193.4" y="64.2" width="6.6" height="6.6"/><rect class="cls-2" x="134.5" y="72.2" width="6.6" height="6.6"/><rect class="cls-2" x="142.9" y="72.2" width="6.6" height="6.6"/><rect class="cls-2" x="151.3" y="72.2" width="6.6" height="6.6"/><rect class="cls-2" x="159.7" y="72.2" width="6.6" height="6.6"/><rect class="cls-2" x="168.2" y="72.2" width="6.6" height="6.6"/><rect class="cls-2" x="176.6" y="72.2" width="6.6" height="6.6"/><rect class="cls-2" x="185" y="72.2" width="6.6" height="6.6"/><rect class="cls-2" x="193.4" y="72.2" width="6.6" height="6.6"/><rect class="cls-2" x="134.5" y="80.2" width="6.6" height="6.6"/><rect class="cls-2" x="142.9" y="80.2" width="6.6" height="6.6"/><rect class="cls-2" x="151.3" y="80.2" width="6.6" height="6.6"/><rect class="cls-2" x="159.7" y="80.2" width="6.6" height="6.6"/><rect class="cls-2" x="168.2" y="80.2" width="6.6" height="6.6"/><rect class="cls-2" x="176.6" y="80.2" width="6.6" height="6.6"/><rect class="cls-2" x="185" y="80.2" width="6.6" height="6.6"/><rect class="cls-2" x="193.4" y="80.2" width="6.6" height="6.6"/><rect class="cls-2" x="134.5" y="88.2" width="6.6" height="6.6"/><rect class="cls-2" x="142.9" y="88.2" width="6.6" height="6.6"/><rect class="cls-2" x="151.3" y="88.2" width="6.6" height="6.6"/><rect class="cls-2" x="159.7" y="88.2" width="6.6" height="6.6"/><rect class="cls-2" x="168.2" y="88.2" width="6.6" height="6.6"/><rect class="cls-2" x="176.6" y="88.2" width="6.6" height="6.6"/><rect class="cls-2" x="185" y="88.2" width="6.6" height="6.6"/><rect class="cls-2" x="193.4" y="88.2" width="6.6" height="6.6"/><rect class="cls-2" x="134.5" y="96.3" width="6.6" height="6.6"/><rect class="cls-2" x="142.9" y="96.3" width="6.6" height="6.6"/><rect class="cls-2" x="151.3" y="96.3" width="6.6" height="6.6"/><rect class="cls-2" x="159.7" y="96.3" width="6.6" height="6.6"/><rect class="cls-2" x="168.2" y="96.3" width="6.6" height="6.6"/><rect class="cls-2" x="176.6" y="96.3" width="6.6" height="6.6"/><rect class="cls-2" x="185" y="96.3" width="6.6" height="6.6"/><rect class="cls-2" x="193.4" y="96.3" width="6.6" height="6.6"/><rect class="cls-2" x="134.5" y="104.3" width="6.6" height="6.6"/><rect class="cls-2" x="142.9" y="104.3" width="6.6" height="6.6"/><rect class="cls-2" x="151.3" y="104.3" width="6.6" height="6.6"/><rect class="cls-2" x="159.7" y="104.3" width="6.6" height="6.6"/><rect class="cls-2" x="168.2" y="104.3" width="6.6" height="6.6"/><rect class="cls-2" x="176.6" y="104.3" width="6.6" height="6.6"/><rect class="cls-2" x="185" y="104.3" width="6.6" height="6.6"/><rect class="cls-2" x="193.4" y="104.3" width="6.6" height="6.6"/><rect class="cls-2" x="134.5" y="112.3" width="6.6" height="6.6"/><rect class="cls-2" x="142.9" y="112.3" width="6.6" height="6.6"/><rect class="cls-2" x="151.3" y="112.3" width="6.6" height="6.6"/><rect class="cls-2" x="159.7" y="112.3" width="6.6" height="6.6"/><rect class="cls-2" x="168.2" y="112.3" width="6.6" height="6.6"/><rect class="cls-2" x="176.6" y="112.3" width="6.6" height="6.6"/><rect class="cls-2" x="185" y="112.3" width="6.6" height="6.6"/><rect class="cls-2" x="193.4" y="112.3" width="6.6" height="6.6"/><rect class="cls-2" x="134.5" y="120.3" width="6.6" height="6.6"/><rect class="cls-2" x="142.9" y="120.3" width="6.6" height="6.6"/><rect class="cls-2" x="151.3" y="120.3" width="6.6" height="6.6"/><rect class="cls-2" x="159.7" y="120.3" width="6.6" height="6.6"/><rect class="cls-2" x="168.2" y="120.3" width="6.6" height="6.6"/><rect class="cls-2" x="176.6" y="120.3" width="6.6" height="6.6"/><rect class="cls-2" x="185" y="120.3" width="6.6" height="6.6"/><rect class="cls-2" x="193.4" y="120.3" width="6.6" height="6.6"/></svg>