<?xml version="1.0" encoding="UTF-8"?><svg id="Layer_5" xmlns="http://www.w3.org/2000/svg" viewBox="0 0 195 123.8"><defs><style>.cls-1{fill:#19ac8a;}.cls-2{fill:#4b4b4b;}</style></defs><circle class="cls-2" cx="188.1" cy="116.9" r="6.9"/><circle class="cls-2" cx="188.1" cy="101.2" r="6.9"/><circle class="cls-2" cx="188.1" cy="85.5" r="6.9"/><circle class="cls-2" cx="188.1" cy="69.8" r="6.9"/><circle class="cls-2" cx="171.6" cy="116.9" r="6.9"/><circle class="cls-2" cx="171.6" cy="101.2" r="6.9"/><circle class="cls-2" cx="171.6" cy="85.5" r="6.9"/><circle class="cls-2" cx="171.6" cy="69.8" r="6.9"/><circle class="cls-2" cx="155.2" cy="116.9" r="6.9"/><circle class="cls-2" cx="155.2" cy="101.2" r="6.9"/><circle class="cls-2" cx="155.2" cy="85.5" r="6.9"/><circle class="cls-2" cx="155.2" cy="69.8" r="6.9"/><circle class="cls-2" cx="138.7" cy="116.9" r="6.9"/><circle class="cls-2" cx="138.7" cy="101.2" r="6.9"/><circle class="cls-2" cx="138.7" cy="85.5" r="6.9"/><circle class="cls-2" cx="138.7" cy="69.8" r="6.9"/><circle class="cls-1" cx="188.1" cy="54" r="6.9"/><circle class="cls-1" cx="188.1" cy="38.3" r="6.9"/><circle class="cls-1" cx="188.1" cy="22.6" r="6.9"/><circle class="cls-1" cx="188.1" cy="6.9" r="6.9"/><circle class="cls-1" cx="171.6" cy="54" r="6.9"/><circle class="cls-1" cx="171.6" cy="38.3" r="6.9"/><circle class="cls-1" cx="171.6" cy="22.6" r="6.9"/><circle class="cls-1" cx="171.6" cy="6.9" r="6.9"/><circle class="cls-1" cx="155.2" cy="54" r="6.9"/><circle class="cls-1" cx="155.2" cy="38.3" r="6.9"/><circle class="cls-1" cx="155.2" cy="22.6" r="6.9"/><circle class="cls-1" cx="155.2" cy="6.9" r="6.9"/><circle class="cls-1" cx="138.7" cy="54" r="6.9"/><circle class="cls-1" cx="138.7" cy="38.3" r="6.9"/><circle class="cls-1" cx="138.7" cy="22.6" r="6.9"/><circle class="cls-1" cx="138.7" cy="6.9" r="6.9"/><circle class="cls-2" cx="122.2" cy="54" r="6.9"/><circle class="cls-2" cx="122.2" cy="38.3" r="6.9"/><circle class="cls-2" cx="122.2" cy="22.6" r="6.9"/><circle class="cls-2" cx="122.2" cy="6.9" r="6.9"/><circle class="cls-2" cx="105.7" cy="54" r="6.9"/><circle class="cls-2" cx="105.7" cy="38.3" r="6.9"/><circle class="cls-2" cx="105.7" cy="22.6" r="6.9"/><circle class="cls-2" cx="105.7" cy="6.9" r="6.9"/><circle class="cls-2" cx="89.3" cy="54" r="6.9"/><circle class="cls-2" cx="89.3" cy="38.3" r="6.9"/><circle class="cls-2" cx="89.3" cy="22.6" r="6.9"/><circle class="cls-2" cx="89.3" cy="6.9" r="6.9"/><circle class="cls-2" cx="72.8" cy="54" r="6.9"/><circle class="cls-2" cx="72.8" cy="38.3" r="6.9"/><circle class="cls-2" cx="72.8" cy="22.6" r="6.9"/><circle class="cls-2" cx="72.8" cy="6.9" r="6.9"/><circle class="cls-2" cx="56.3" cy="54" r="6.9"/><circle class="cls-2" cx="56.3" cy="38.3" r="6.9"/><circle class="cls-2" cx="56.3" cy="22.6" r="6.9"/><circle class="cls-2" cx="56.3" cy="6.9" r="6.9"/><circle class="cls-2" cx="39.8" cy="54" r="6.9"/><circle class="cls-2" cx="39.8" cy="38.3" r="6.9"/><circle class="cls-2" cx="39.8" cy="22.6" r="6.9"/><circle class="cls-2" cx="39.8" cy="6.9" r="6.9"/><circle class="cls-2" cx="23.4" cy="54" r="6.9"/><circle class="cls-2" cx="23.4" cy="38.3" r="6.9"/><circle class="cls-2" cx="23.4" cy="22.6" r="6.9"/><circle class="cls-2" cx="23.4" cy="6.9" r="6.9"/><circle class="cls-2" cx="6.9" cy="54" r="6.9"/><circle class="cls-2" cx="6.9" cy="38.3" r="6.9"/><circle class="cls-2" cx="6.9" cy="22.6" r="6.9"/><circle class="cls-2" cx="6.9" cy="6.9" r="6.9"/><circle class="cls-2" cx="122.2" cy="116.9" r="6.9"/><circle class="cls-2" cx="122.2" cy="101.2" r="6.9"/><circle class="cls-2" cx="122.2" cy="85.5" r="6.9"/><circle class="cls-2" cx="122.2" cy="69.8" r="6.9"/><circle class="cls-2" cx="105.7" cy="116.9" r="6.9"/><circle class="cls-2" cx="105.7" cy="101.2" r="6.9"/><circle class="cls-2" cx="105.7" cy="85.5" r="6.9"/><circle class="cls-2" cx="105.7" cy="69.8" r="6.9"/><circle class="cls-2" cx="89.3" cy="116.9" r="6.9"/><circle class="cls-2" cx="89.3" cy="101.2" r="6.9"/><circle class="cls-2" cx="89.3" cy="85.5" r="6.9"/><circle class="cls-2" cx="89.3" cy="69.8" r="6.9"/><circle class="cls-2" cx="72.8" cy="116.9" r="6.9"/><circle class="cls-2" cx="72.8" cy="101.2" r="6.9"/><circle class="cls-2" cx="72.8" cy="85.5" r="6.9"/><circle class="cls-2" cx="72.8" cy="69.8" r="6.9"/><circle class="cls-2" cx="56.3" cy="116.9" r="6.9"/><circle class="cls-2" cx="56.3" cy="101.2" r="6.9"/><circle class="cls-2" cx="56.3" cy="85.5" r="6.9"/><circle class="cls-2" cx="56.3" cy="69.8" r="6.9"/><circle class="cls-2" cx="39.8" cy="116.9" r="6.9"/><circle class="cls-2" cx="39.8" cy="101.2" r="6.9"/><circle class="cls-2" cx="39.8" cy="85.5" r="6.9"/><circle class="cls-2" cx="39.8" cy="69.8" r="6.9"/><circle class="cls-2" cx="23.4" cy="116.9" r="6.9"/><circle class="cls-2" cx="23.4" cy="101.2" r="6.9"/><circle class="cls-2" cx="23.4" cy="85.5" r="6.9"/><circle class="cls-2" cx="23.4" cy="69.8" r="6.9"/><circle class="cls-2" cx="6.9" cy="116.9" r="6.9"/><circle class="cls-2" cx="6.9" cy="101.2" r="6.9"/><circle class="cls-2" cx="6.9" cy="85.5" r="6.9"/><circle class="cls-2" cx="6.9" cy="69.8" r="6.9"/></svg>